<?xml version="1.0" encoding="utf-8"?><!DOCTYPE svg PUBLIC "-//W3C//DTD SVG 1.1//EN" "http://www.w3.org/Graphics/SVG/1.1/DTD/svg11.dtd"><svg width="800" height="600" viewBox="0 0 800 600" xmlns="http://www.w3.org/2000/svg" xmlns:xlink="http://www.w3.org/1999/xlink"><svg width="200" height="200" viewBox="0 0 200 200" id="belkin" x="200"><g fill-rule="evenodd" clip-rule="evenodd" fill="#fff"><path d="M57.16 68.11c.43.042.862.07 1.29.127 1.155.155 2.182.596 3.04 1.4 1.11 1.04 1.07 2.75.022 3.805-.533.537-1.17.876-1.904 1.043l-.106.026-.1.028c.197.052.358.093.518.138.7.198 1.372.46 1.956.91.845.648 1.207 1.52 1.142 2.568-.084 1.363-.838 2.283-2 2.905-.88.47-1.84.652-2.826.696-.49.02-.98.022-1.468.034-.062 0-.124.01-.186.016h-6.536V68.11h7.16zm-3.43 11.44h.18c.756 0 1.51.005 2.267-.002.285-.003.572-.022.855-.06.553-.074 1.04-.28 1.395-.74.603-.78.5-1.803-.25-2.412-.417-.337-.913-.453-1.43-.462-.978-.018-1.957-.01-2.936-.014-.024 0-.048.004-.08.008v3.682zm-.047-5.963c.288 0 .56.003.83 0 .795-.01 1.59-.012 2.388-.04.456-.017.84-.21 1.135-.574.612-.753.465-1.674-.353-2.185-.333-.208-.707-.29-1.087-.298-.953-.024-1.905-.025-2.857-.035-.015 0-.03.006-.054.01v3.122zM130.832 81.806c-.002-.058-.005-.115-.005-.172V68.155c.07-.003.12-.007.17-.007 1.273 0 2.544 0 3.816-.002.09 0 .152.013.206.098 1.305 2.04 2.625 4.068 3.917 6.115.6.95 1.1 1.96 1.525 3.003.01.03.027.056.056.115-.295-3.12-.215-6.216-.295-9.318h3.444v13.481c0 .056-.01.112-.015.17h-3.877c-1.92-3.197-3.892-6.362-5.732-9.59.006-.012-.002-.003 0 .004.032.728.08 1.455.096 2.183.04 1.973.064 3.946.097 5.92.008.494.024.987.036 1.482h-3.44zM101.626 81.806c-.002-.058-.005-.115-.005-.172V68.148h3.79v6.158l.036.015c.106-.122.214-.245.32-.37 1.602-1.897 3.204-3.797 4.81-5.693.05-.06.142-.115.214-.115 1.407-.007 2.814-.005 4.222-.005.034 0 .07.003.136.007l-5.897 6.324 2.436 2.72 4.044 4.517c.026.03.042.067.062.102h-4.784c-.025-.04-.047-.08-.076-.117l-4.93-6.275-.586-.742v6.525c0 .203-.003.406-.005.61-1.262-.002-2.523-.002-3.784-.002zM68.762 81.806c0-.068-.005-.136-.005-.203V68.137H79.28c-.038.187-.073.368-.113.547-.12.548-.25 1.095-.36 1.646-.033.17-.1.207-.264.207-1.95-.006-3.898-.004-5.847-.004h-.207v3h5.27v2.293h-5.208v3.535h6.966v2.446H68.762zM85.93 81.806c0-.062.004-.125.004-.187V68.136h3.804v11.227h7.08c-.125.575-.244 1.128-.366 1.682-.056.254-.116.507-.173.76H85.93zM120.73 81.806c.002-.068.007-.136.007-.203V68.15h3.622v13.657h-3.63zM148.06 81.806c-.374-.105-.695-.29-.94-.6-.4-.513-.456-1.243-.13-1.804.348-.596.978-.89 1.69-.783.603.09 1.143.598 1.286 1.212.008.034.023.065.035.098v.562c-.01.022-.026.043-.03.065-.088.397-.296.723-.63.948-.187.128-.413.202-.622.3h-.657zm-1.042-1.604c0 .768.6 1.384 1.35 1.385.785 0 1.39-.596 1.394-1.374.004-.77-.6-1.383-1.366-1.39-.762-.004-1.377.612-1.378 1.38zM148.718 81.806c.21-.098.434-.172.623-.3.334-.225.542-.55.63-.948.004-.022.02-.043.03-.065v1.313h-1.282zM148.76 80.265c.283-.118.367-.227.36-.457-.004-.223-.106-.383-.305-.44-.35-.1-.707-.053-1.063-.056v1.763h.312v-.71c.214.035.43.02.59.108.22.12.124.394.167.605h.282c-.033-.307.07-.664-.342-.813zM148.76 80.265c.414.148.31.506.342.814h-.28c-.045-.213.053-.486-.168-.606-.16-.087-.376-.074-.59-.11v.712h-.312v-1.763c.356.003.713-.044 1.063.056.2.056.3.216.306.44.006.228-.078.337-.36.455zm-.696-.118c.17 0 .326.012.48-.003.167-.017.26-.136.26-.295.002-.17-.08-.27-.258-.293-.156-.02-.315-.022-.482-.033v.623zM148.064 80.147v-.624c.167.01.326.013.482.033.177.023.26.125.26.292-.003.16-.095.278-.263.295-.153.017-.31.004-.48.004z"/></g></svg><svg width="200" height="200" viewBox="0 0 200 200" id="brennenstuhl" y="400"><g fill="#fff"><path d="M124.54 85.632h-49.8V99.57h49.8V85.632zm-.01-35.197H74.74v13.78h49.79v-13.78zM137.71 66.49v13.334h2.95v-.517c0-1.873-.005-3.746.005-5.617.002-.34.047-.68.105-1.015.063-.365.242-.643.67-.638.412.003.77.282.848.693.05.266.072.542.073.814.006 1.94.003 3.88.004 5.822v.455h2.82v-.934c-.008-2.2-.01-4.4-.03-6.6-.003-.512-.11-1.015-.49-1.398-.966-.977-2.093-1.16-3.336-.56l-.68.326V66.49h-2.94zm-87.652.84V76.356c0 .396.006.793.04 1.188.117 1.405.843 2.3 2.216 2.5.878.127 1.807.14 2.684.01 1.38-.204 2.636-1.142 2.578-3.106-.042-1.406-.007-2.815-.014-4.222 0-.258-.024-.518-.064-.773-.1-.66-.628-1.003-1.077-1.393-.957-.83-2.094-.882-3.155-.174-.108.073-.22.14-.404.258v-3.312h-2.804zm32.277 12.513c.017-.088.035-.14.035-.193 0-2.296.006-4.592-.006-6.888-.004-.955-.343-1.705-1.192-2.278-.802-.542-1.576-.62-2.436-.302-.332.122-.65.28-.956.415-.102-.1-.188-.257-.277-.258-.924-.02-1.85-.012-2.786-.012v9.5h2.955v-.51c0-1.777-.016-3.554.008-5.33.007-.5.092-1.006.208-1.493.104-.438.475-.56.896-.4.45.17.606.482.603.95-.015 2.12-.01 4.238-.014 6.357v.44h2.963zm9.568-.01c.007-.112.015-.19.015-.27 0-2.31.006-4.62-.006-6.93-.004-.617-.05-1.247-.505-1.73-.88-.928-2.085-1.163-3.272-.66-.286.12-.568.25-.775.34-.138-.114-.225-.248-.313-.25-.87-.015-1.74-.008-2.63-.008v9.5h2.818v-.476c0-1.9-.016-3.8.017-5.7.008-.42.136-.862.308-1.25.175-.395.485-.412.89-.244.45.186.49.546.49.94-.007 2.092-.017 4.183-.025 6.274v.46c1.012.003 1.978.003 2.988.003zm39.037-9.484h-2.972c-.007.113-.018.206-.018.3 0 2.227-.003 4.455.003 6.682 0 .245.03.492.074.732.206 1.104 1.226 1.93 2.34 1.958.8.02 1.537-.148 2.228-.626l.08.425h2.783v-9.467h-2.817v.513c-.002 1.872.007 3.744-.017 5.617-.004.358-.096.73-.225 1.068-.143.374-.5.52-.875.46-.372-.06-.522-.366-.56-.72-.017-.148-.018-.3-.017-.45l.014-6.15c-.002-.105-.013-.21-.02-.34zm-24.987.236c-.133-.1-.238-.25-.345-.25-.912-.02-1.823-.01-2.752-.01v9.506h2.965v-.502c.003-1.968 0-3.937.014-5.904.002-.31.034-.632.123-.928.12-.4.494-.55.886-.41.49.172.664.46.667 1.18.007 2.035.004 4.07.005 6.108v.45h2.84c0-.71.002-1.39 0-2.07-.01-1.804-.014-3.608-.032-5.412-.01-.82-.34-1.43-1.07-1.894-.82-.52-1.62-.59-2.49-.25-.29.116-.566.27-.81.386zm-32.973 5.236c0-1.004.012-1.947-.003-2.89-.023-1.38-.934-2.562-2.288-2.822-.74-.143-1.522-.14-2.28-.104-1.458.067-2.667 1.22-2.732 2.67-.07 1.54-.064 3.087-.003 4.628.054 1.31 1.013 2.425 2.314 2.614.89.13 1.84.132 2.72-.037 1.545-.296 2.518-1.856 2.22-3.33h-2.958c0 .392.028.76-.008 1.122-.04.42-.336.69-.68.694-.376.003-.75-.257-.78-.648-.046-.618-.013-1.243-.013-1.898 1.505.002 2.975.002 4.492.002zm28.144.002c0-.938.005-1.812 0-2.685-.01-1.534-.94-2.756-2.448-3.052-.7-.137-1.442-.12-2.16-.08-1.458.08-2.656 1.28-2.706 2.745-.05 1.487-.047 2.98-.002 4.466.04 1.342.99 2.47 2.318 2.707.716.127 1.473.122 2.203.064 1.732-.138 3.04-1.8 2.747-3.44h-2.905c-.02.404-.016.785-.068 1.16-.053.37-.266.634-.67.657-.375.02-.75-.246-.782-.64-.048-.62-.013-1.244-.013-1.9 1.495-.003 2.966-.003 4.486-.003zm18.08-2.71c.116-1.69-.53-2.71-2.02-2.973-.845-.15-1.737-.114-2.603-.065-.957.055-1.63.663-2.16 1.405-.607.854-.5 2.275.22 2.96.353.336.75.64 1.168.89.69.413 1.41.777 2.123 1.15.36.19.49.474.46.874-.038.526-.275.84-.695.852-.48.013-.774-.28-.812-.832-.018-.267-.002-.536-.002-.82h-2.823c-.258 1.503.223 2.615 1.414 3.15.465.21.98.36 1.486.423 1.23.15 2.423.042 3.495-.69 1.556-1.063 1.362-3.56.142-4.33-.69-.435-1.386-.865-2.08-1.298-.414-.26-.85-.492-1.234-.79-.266-.21-.352-.57-.148-.85.13-.178.408-.31.634-.338.343-.04.603.167.695.513.064.246.09.502.137.77h2.602zm7.062 4.915h-.735c-.614-.004-.782-.167-.782-.774-.002-1.627-.002-3.253 0-4.88 0-.12.014-.238.025-.41h1.496c0-.586-.013-1.118.005-1.648.01-.278-.1-.357-.358-.347-.378.016-.756.005-1.18.005V67.33c-.988.432-1.91.83-2.825 1.253-.083.038-.134.22-.14.34-.02.334-.006.67-.006 1.06h-1.328v1.995h1.33v.52c0 1.75-.006 3.5 0 5.25.005.925.604 1.856 1.374 2.09.948.288 1.918.225 2.883.083.088-.013.228-.138.23-.215.02-.545.012-1.088.012-1.676zm21.147-11.534v13.338h2.618V66.496h-2.62zM59.632 70.34v9.49h2.803v-.506c.002-1.735.01-3.47.005-5.203 0-.55.23-.97.664-1.29.44-.324.874-.663 1.5-.513 0-.62-.013-1.164.007-1.708.01-.27-.1-.352-.344-.387-.67-.095-1.27.034-1.775.538-.046-.175-.08-.3-.11-.42h-2.747z"/><path d="M124.54 85.632V99.57h-49.8V85.632h49.8zM124.53 50.435v13.78H74.74v-13.78h49.79zM137.708 66.49h2.94v4.165l.68-.327c1.244-.6 2.37-.416 3.337.56.378.384.486.887.49 1.398.02 2.2.02 4.4.028 6.6v.936h-2.82v-.455c0-1.94.003-3.88-.004-5.822-.002-.272-.024-.548-.074-.814-.078-.41-.436-.688-.848-.692-.428-.004-.607.273-.67.638-.058.334-.104.676-.105 1.015-.01 1.873-.005 3.745-.005 5.618v.517h-2.95V66.49zM50.056 67.33h2.805v3.313c.185-.117.296-.185.405-.258 1.06-.708 2.198-.657 3.154.173.447.39.976.733 1.076 1.393.04.256.063.516.064.774.007 1.407-.028 2.816.014 4.222.06 1.964-1.198 2.902-2.578 3.107-.877.13-1.805.117-2.684-.01-1.374-.2-2.1-1.097-2.216-2.5-.033-.396-.038-.793-.04-1.19-.002-2.828 0-5.656 0-8.484v-.54zm2.822 7.852c0 .735-.004 1.472 0 2.208.006.62.33.982.854.98s.846-.36.85-.987c.007-1.458.005-2.917 0-4.377-.003-.543-.342-.86-.877-.847-.523.013-.823.318-.826.854-.005.722-.002 1.444-.002 2.168zM82.333 79.843H79.37v-.44c.004-2.12 0-4.24.015-6.357.003-.468-.153-.78-.603-.95-.42-.16-.79-.04-.896.4-.116.486-.2.992-.208 1.49-.024 1.778-.01 3.555-.01 5.332v.51h-2.954v-9.5c.937 0 1.862-.007 2.787.01.09.002.176.16.278.26.307-.135.625-.294.956-.416.86-.318 1.633-.24 2.436.302.85.573 1.188 1.324 1.192 2.278.012 2.296.006 4.592.006 6.888 0 .052-.017.105-.035.193zM91.9 79.833h-2.988v-.46c.008-2.092.018-4.183.024-6.274 0-.396-.038-.756-.488-.942-.406-.167-.716-.15-.89.243-.172.39-.3.83-.31 1.25-.032 1.9-.015 3.8-.016 5.7v.476h-2.818v-9.5c.89 0 1.76-.006 2.63.01.088 0 .175.135.313.25.207-.092.49-.22.775-.342 1.187-.502 2.392-.268 3.272.662.456.48.5 1.112.504 1.728.013 2.31.006 4.62.006 6.93 0 .078-.007.158-.013.27zM130.937 70.35c.007.13.02.235.018.34l-.014 6.15c0 .15 0 .302.018.452.038.353.188.66.56.72.376.06.733-.087.875-.46.13-.337.22-.71.226-1.068.023-1.873.014-3.745.016-5.617v-.513h2.817v9.468h-2.783l-.08-.425c-.69.478-1.427.646-2.23.626-1.112-.028-2.132-.854-2.338-1.958-.045-.24-.074-.487-.074-.732-.006-2.228-.004-4.456-.003-6.683 0-.093.01-.186.018-.3h2.974zM105.95 70.586c.244-.118.52-.27.81-.385.868-.34 1.67-.27 2.49.25.73.463 1.06 1.074 1.07 1.894.017 1.804.022 3.608.03 5.41.003.682 0 1.363 0 2.073h-2.84v-.45c0-2.038.003-4.074-.004-6.11-.002-.72-.176-1.006-.666-1.18-.392-.14-.766.01-.886.41-.09.296-.12.618-.123.93-.013 1.967-.01 3.936-.013 5.903v.502h-2.965v-9.506c.93 0 1.84-.008 2.752.01.108.002.213.15.346.25zM72.977 75.822h-4.492c0 .655-.033 1.28.012 1.898.03.39.405.65.782.648.342-.003.637-.275.678-.694.036-.362.008-.73.008-1.122h2.96c.296 1.473-.677 3.034-2.22 3.33-.88.17-1.832.168-2.722.038-1.3-.19-2.26-1.306-2.313-2.614-.06-1.54-.065-3.09.004-4.628.065-1.452 1.274-2.603 2.73-2.67.76-.035 1.54-.04 2.282.104 1.354.26 2.265 1.442 2.288 2.823.014.94.003 1.883.003 2.887zm-4.514-1.997c.462 0 .894.01 1.325-.01.07-.002.19-.122.19-.19.013-.407.024-.818-.018-1.22-.04-.358-.382-.605-.723-.587-.4.02-.748.296-.77.657-.022.43-.004.865-.004 1.35zM101.12 75.824h-4.486c0 .658-.035 1.282.013 1.9.03.395.408.662.782.64.403-.022.617-.286.668-.655.052-.376.047-.758.068-1.16h2.905c.295 1.64-1.013 3.3-2.746 3.44-.73.057-1.486.062-2.203-.065-1.326-.237-2.278-1.365-2.317-2.708-.045-1.487-.048-2.98.002-4.466.05-1.465 1.248-2.664 2.707-2.744.717-.04 1.46-.057 2.16.08 1.505.296 2.437 1.518 2.447 3.05.005.877 0 1.75 0 2.688zm-4.515-2c.47 0 .902.01 1.333-.008.07-.002.187-.124.19-.193.015-.394.027-.79-.01-1.182-.035-.36-.362-.622-.7-.623-.407 0-.784.284-.807.663-.025.43-.005.862-.005 1.345zM119.2 73.115h-2.604c-.047-.267-.073-.523-.138-.77-.092-.345-.353-.553-.695-.512-.226.028-.504.16-.634.337-.205.28-.118.642.147.85.385.3.82.53 1.235.79.693.433 1.388.863 2.08 1.3 1.22.768 1.414 3.265-.142 4.328-1.07.732-2.265.842-3.495.69-.507-.062-1.02-.213-1.487-.422-1.19-.536-1.67-1.648-1.414-3.15h2.823c0 .283-.016.552.003.82.038.55.332.843.812.83.42-.01.657-.324.695-.85.03-.4-.1-.684-.46-.874-.713-.374-1.432-.738-2.123-1.15-.417-.25-.815-.555-1.168-.89-.72-.687-.827-2.108-.22-2.96.53-.744 1.203-1.352 2.16-1.406.866-.05 1.758-.083 2.604.066 1.49.263 2.135 1.282 2.02 2.973zM126.262 78.03c0 .587.01 1.13-.01 1.673-.004.077-.144.203-.232.216-.965.14-1.936.204-2.883-.085-.77-.233-1.37-1.164-1.373-2.09-.007-1.75-.002-3.5-.002-5.25v-.52h-1.33V69.98h1.33c0-.387-.013-.724.006-1.06.006-.12.058-.3.14-.34.914-.42 1.836-.82 2.824-1.253v2.646c.424 0 .803.01 1.18-.004.26-.01.37.068.36.346-.02.53-.005 1.062-.005 1.647h-1.496c-.01.173-.023.292-.024.41-.002 1.628-.002 3.254 0 4.88 0 .608.168.77.782.774.228.003.457.002.734.002zM147.41 66.496h2.618v13.338h-2.62V66.496zM59.633 70.34h2.747c.03.12.064.246.11.422.506-.503 1.106-.633 1.776-.538.245.035.355.118.345.386-.02.544-.005 1.088-.005 1.708-.627-.15-1.06.19-1.5.512-.437.32-.666.74-.664 1.292.005 1.734 0 3.468-.004 5.203v.507h-2.803v-9.49z" fill-rule="evenodd" clip-rule="evenodd"/></g></svg><svg width="200" height="200" viewBox="0 0 200 200" id="conrad-electronic-se" y="200"><g fill-rule="evenodd" clip-rule="evenodd" fill="#fff"><path d="M98.122 81.69l.273-1.234 2.698-11.977c.013-.063.033-.124.042-.186.02-.135.092-.197.23-.18.043.005.085 0 .128 0 2.92 0 5.84-.007 8.76.004 1.037.004 2.072.067 3.08.337.66.176 1.282.437 1.797.904.64.582.918 1.34 1.012 2.173.09.79.046 1.577-.187 2.344-.417 1.38-1.344 2.314-2.625 2.902-.51.232-1.06.378-1.59.562-.09.03-.183.054-.313.093L113.44 80c.198-.275.374-.518.547-.762 1.99-2.8 3.97-5.604 5.97-8.396.374-.52.8-1.003 1.232-1.476.704-.77 1.62-1.13 2.64-1.16 1.81-.06 3.623-.07 5.434-.09 1.072-.013 2.145-.003 3.217-.003h.284c-.03.16-.053.288-.082.415-.825 3.67-1.652 7.34-2.48 11.008-.147.66-.303 1.317-.447 1.978-.028.134-.082.19-.223.19-1.637-.003-3.272-.002-4.91-.003-.046 0-.094-.012-.167-.023l.523-2.38c-.094-.004-.16-.012-.23-.012-1.698 0-3.398.002-5.098-.004-.16 0-.256.048-.345.182-.456.688-.924 1.368-1.38 2.055-.087.13-.18.19-.342.19-2.13-.008-4.26 0-6.39-.016-.668-.004-1.342-.085-1.85-.585-.274-.27-.524-.577-.722-.905-.786-1.304-1.548-2.622-2.318-3.936-.243-.414-.482-.83-.722-1.244-.038-.066-.07-.135-.122-.235.106-.007.187-.015.268-.016 1.262-.005 2.525.012 3.787-.022.702-.02 1.337-.263 1.615-.98.118-.306.152-.662.143-.992-.01-.394-.264-.67-.61-.854-.497-.26-1.036-.307-1.582-.31-1.058-.002-2.117.004-3.174-.004-.196-.002-.264.072-.304.256-.71 3.175-1.43 6.35-2.146 9.523-.07.314-.07.314-.398.314h-4.634c-.09.005-.18-.004-.3-.01zm23.447-5.735c.07.013.11.026.15.026 1.227.002 2.453 0 3.68.005.15 0 .192-.078.22-.2.292-1.32.583-2.64.882-3.956.038-.17-.02-.22-.176-.215-.29.01-.58 0-.867.02-.506.036-.97.192-1.33.566-.186.193-.365.397-.514.617-.66.983-1.307 1.975-1.958 2.963-.028.046-.05.098-.09.175zM68.723 83.07c-.067.32-.128.613-.193.906-.233 1.045-.472 2.09-.7 3.135-.034.16-.094.222-.263.222-2.61-.004-5.22.006-7.83-.007-1.333-.006-2.663-.066-3.975-.333-.953-.193-1.87-.483-2.704-.997-1.274-.782-2.032-1.944-2.456-3.35-.29-.963-.444-1.952-.47-2.955-.023-.958-.052-1.918.005-2.874.2-3.3.948-6.45 2.706-9.3 1.462-2.372 3.568-3.83 6.278-4.44 1.11-.25 2.23-.437 3.366-.457 2.77-.05 5.542-.06 8.313-.08.76-.006 1.522 0 2.285 0 .25 0 .26.013.205.25-.287 1.272-.577 2.543-.857 3.815-.038.17-.128.2-.283.2-2.116-.004-4.232-.03-6.347.01-1.706.03-3.326.43-4.758 1.408-1.58 1.08-2.52 2.61-3.08 4.403-.323 1.04-.497 2.108-.56 3.196-.062 1.058-.09 2.113.09 3.163.18 1.045.558 1.996 1.376 2.72.676.595 1.487.903 2.353 1.09.83.18 1.672.25 2.52.254 1.557.008 3.116 0 4.675.002.092.003.18.012.305.018zM68.097 81.696c-1.522 0-3.046.015-4.57-.006-.816-.012-1.627-.12-2.413-.375-1.284-.42-2.02-1.306-2.26-2.622-.155-.852-.146-1.708-.093-2.57.068-1.11.235-2.198.602-3.25.53-1.53 1.403-2.806 2.81-3.668.94-.578 1.972-.907 3.067-.997.79-.064 1.588-.08 2.384-.085 2.242-.012 4.485-.016 6.727-.004 1.002.005 2 .072 2.967.372 1.42.44 2.237 1.406 2.523 2.846.208 1.046.202 2.1.098 3.156-.092.945-.28 1.865-.632 2.75-.918 2.312-2.617 3.713-5.03 4.23-.678.146-1.382.205-2.075.222-1.366.033-2.735.01-4.103.01v-.01zm.51-3.253v.023c.846-.022 1.694-.003 2.535-.078 1.133-.1 2.037-.637 2.61-1.645.608-1.068.727-2.24.646-3.438-.065-.987-.54-1.386-1.525-1.51-.37-.045-.744-.072-1.116-.076-1.057-.01-2.115-.012-3.172 0-.42.004-.848.017-1.263.082-1.365.214-2.375.92-2.924 2.215-.374.884-.46 1.816-.372 2.758.08.846.49 1.3 1.32 1.492.4.093.818.15 1.23.166.677.03 1.355.01 2.032.01zM137.42 81.706h-5.67c-.297 0-.3 0-.233-.297l2.47-11.03c.153-.68.31-1.36.454-2.042.036-.167.105-.226.283-.226 3.4.006 6.798 0 10.197.008.754.003 1.504.078 2.237.283 1.505.42 2.402 1.402 2.73 2.92.196.91.194 1.83.14 2.756-.06.988-.21 1.96-.515 2.902-.845 2.6-2.62 4.13-5.31 4.584-.56.095-1.134.128-1.703.133-1.694.016-3.387.006-5.08.006zm.063-3.476h.295c1.093 0 2.186.003 3.28 0 1.458-.007 2.495-.684 3.115-1.996.466-.985.55-2.038.45-3.102-.078-.817-.465-1.223-1.244-1.4-.253-.056-.516-.096-.774-.1-1.127-.015-2.256-.01-3.384-.02-.194-.003-.264.067-.305.252-.368 1.656-.748 3.31-1.122 4.965-.104.452-.202.904-.312 1.4zM99.43 68.136c-.074.34-.143.67-.217.998-.927 4.115-1.856 8.23-2.78 12.346-.038.164-.1.23-.28.23-1.6-.007-3.202-.006-4.802 0-.168 0-.248-.066-.317-.21-1.374-2.83-2.75-5.654-4.128-8.48-.04-.08-.083-.16-.155-.298-.096.416-.18.768-.258 1.122-.57 2.542-1.138 5.085-1.702 7.63-.04.174-.108.237-.294.236-1.51-.007-3.02-.004-4.527-.005-.077 0-.152-.008-.255-.014l.31-1.397 2.53-11.298c.048-.22.115-.438.148-.66.027-.182.116-.222.285-.222 1.615.005 3.23.003 4.846.003.29 0 .578.01.867-.003.194-.01.297.05.384.236 1.138 2.454 2.287 4.905 3.432 7.357.03.062.06.124.122.246.088-.38.165-.704.238-1.027l1.484-6.575c.03-.135.058-.24.248-.238 1.544.008 3.09.004 4.634.005.055 0 .11.01.19.02z"/></g></svg><svg width="200" height="200" viewBox="0 0 200 200" id="elro" x="200" y="200"><g><g><g fill="#fff"><path d="M125.03 71.84c.74-.02 1.15.26 1.13 1.07-.02 1.44-.02 2.88.01 4.32.01.75-.35 1.08-1.03 1.09-2.2.02-4.4.01-6.6.01-.69-.01-1.06-.4-1.07-1.09-.01-1.44-.01-2.88 0-4.32.01-.75.41-1.1 1.18-1.08 1.08.02 2.16 0 3.24 0 1.05 0 2.09.01 3.14 0zM118.65 71.84c-.77-.02-1.17.33-1.18 1.08-.01 1.44-.01 2.88 0 4.32.01.69.38 1.08 1.07 1.09 2.2 0 4.4.01 6.6-.01.68-.01 1.04-.34 1.03-1.09-.03-1.44-.03-2.88-.01-4.32.02-.81-.39-1.09-1.13-1.07-1.05.01-2.09 0-3.14 0-1.08 0-2.16.02-3.24 0zm-.75 9.07c-2.05-.03-3.44-1.46-3.47-3.52-.03-1.38-.03-2.75 0-4.14v-.52c.04-1.91 1.29-3.26 3.13-3.45.13-.01.25-.02.38-.02 1.3-.02 2.6 0 3.9 0 1.3 0 2.6-.02 3.9 0 2.03.02 3.43 1.31 3.51 3.34.07 1.66.07 3.33 0 4.99-.09 1.98-1.45 3.28-3.44 3.31-2.63.05-5.27.05-7.91.01zM115.24 82.93c.01.75-.69 1.47-1.43 1.47-.77 0-1.47-.69-1.43-1.46.04-.64.31-1.07.8-1.27.16-.06.35-.11.56-.12.81-.05 1.49.59 1.5 1.38zM106.2 79.53c.06.12.13.24.2.36-1.3 2.05-2.6 4.1-3.95 6.24-.35-.32-.6-.55-.89-.83 1.11-1.77 2.16-3.52 3.32-5.2.23-.33.87-.39 1.32-.57zM103.54 56.95c1.51-.97 2.91-2.2 4.55-2.84 3.44-1.35 6.44.74 6.71 4.42.18 2.49-.94 7.17-2.29 9.5-.28-.14-.56-.29-.68-.36.68-2.52 1.34-4.94 2-7.37.02-.07.04-.14.05-.21.16-1.9.09-3.75-1.67-4.97-1.75-1.22-3.47-.61-5.06.36-1.11.68-2.11 1.51-3.28 2.36-.17-.18-.35-.39-.55-.6.09-.12.14-.23.22-.29zM102.77 74.59c-.8.05-1.16-.16-1.12-1.07.08-2.07-.19-1.74 1.8-1.77 1.55-.01 3.09.02 4.64.01.9-.01 1.3.4 1.32 1.3.01.89-.24 1.49-1.24 1.5h-2.91v.02c-.83 0-1.66-.05-2.49.01zM101.65 73.52c-.04.91.32 1.12 1.12 1.07.83-.06 1.66-.01 2.49-.01v-.02h2.91c1-.01 1.25-.61 1.24-1.5-.02-.9-.42-1.31-1.32-1.3-1.55.01-3.09-.02-4.64-.01-1.99.03-1.72-.3-1.8 1.77zm6.12 3.55c-1.94-.06-3.89-.01-6.01-.01v3.81h-3.15V69.41c.03-.03.08-.12.14-.12 3.43-.01 6.86-.14 10.29.02 2.29.1 3.72 1.89 3.72 3.93 0 .89-.27 1.82-.85 2.68 1.27 1.53.61 3.24.79 4.93h-3.24c0-.64.01-1.27 0-1.91-.02-1.34-.39-1.82-1.69-1.87zM102.53 66.8c-.08.15-.15.3-.23.45-.73-.35-1.47-.7-2.3-1.1.37-.53.57-.81.83-1.17.6.65 1.15 1.23 1.7 1.82zM107.2 94.59c-3.5-2.11-9.85-8.31-11.96-11.39.23-.06.43-.09.63-.09.53 0 .97.23 1.42.74 3.3 3.69 6.61 7.38 10.77 10.14.75.49 1.56.91 2.39 1.25 1.6.66 3.17.69 4.59-.48 1.4-1.16 1.55-2.76 1.21-4.35-.35-1.65-.97-3.23-1.51-4.97.1-.06.25-.16.41-.24.08-.05.18-.07.35-.13 1.05 2.26 1.89 4.54 1.7 7.07-.2 2.72-2.78 4.86-5.43 4.28-1.59-.35-3.18-.99-4.57-1.83zM100.5 58.58c.23-.48.74-.81 1.31-.82.78-.01 1.47.65 1.47 1.42-.01.78-.67 1.4-1.49 1.39-.44-.01-.77-.15-.99-.38-.23-.24-.36-.57-.4-.97-.02-.23.02-.45.1-.64zM100.59 61.26c-3.1 4.68-6.18 9.32-9.26 13.96-.08-.01-.16-.01-.24-.02.25-.93.33-1.95.78-2.77 2.27-4.15 4.95-8.03 8.06-11.67.29.21.54.4.66.5zM96.77 78.41v2.42H85.9V69.31h3.12v9.1h7.75zM86.44 92.61c.49 2.37 2.47 3.4 4.79 2.68 2.32-.73 4.01-2.38 5.67-4.05.3-.3.59-.62.95-1 .26.22.49.41.69.58-.03.15-.02.23-.06.28-1.62 1.77-3.36 3.38-5.54 4.45-3.91 1.92-7.27.02-7.63-4.3-.22-2.61.34-5.1 1.2-7.53.12-.33.68-.52 1.25-.92-.55 2.21-1.14 4.01-1.42 5.84-.19 1.3-.17 2.69.1 3.97zM74.19 78.4h9.69v2.45h-12.9V69.32h12.93v2.4h-9.72v1.87h9.33v2.53h-9.33v2.28zM87.4 56.28c-3.41-1-5.03 1.18-4.57 4.07.31 1.97 1.13 3.85 1.73 5.77.1.33.27.63.42.98-.87.07-1.37-.22-1.57-1.01-.48-1.95-1.24-3.87-1.43-5.84-.37-3.84 2.24-5.81 5.92-4.68 3.31 1.02 5.96 3.14 8.65 5.36-.14.22-.21.34-.3.45-.09.11-.2.19-.35.33-.16-.11-.31-.19-.45-.29-2.08-1.47-4.15-2.97-6.26-4.4-.53-.35-1.17-.56-1.79-.74zM71.51 83.1c3.43.01 6.86.01 10.3.01h2.34c-.12.45-.21.8-.3 1.14-.66 2.42-1.07 4.86-.91 7.38.28 4.59 4.04 7.74 8.5 6.82 1.67-.34 3.31-1.24 4.76-2.19 1.53-1 2.81-2.36 4.27-3.61.22.19.5.41.77.64 2.97 2.52 6.08 4.75 10.08 5.36 3.95.61 7.4-1.81 8.12-5.7.45-2.45-.17-4.73-.94-6.99-.32-.93-.72-1.84-1.08-2.75.15-.05.19-.07.22-.07 2.75-.02 5.49-.01 8.24-.04 2.78-.04 5.1-1.89 5.44-4.63.25-2.1.31-4.27.09-6.37-.32-3.18-2.63-5.03-5.85-5.05-1.95-.01-3.91-.03-5.86.01-.75.01-1.51.05-2.28.1-.62.03-1.25.07-1.9.11v.01c-.02-.01-.03-.05-.02-.08.09-.32.19-.62.29-.93.94-2.86 1.75-5.72 1.24-8.8-.62-3.7-3.62-6.23-7.37-6.09-2.6.1-4.7 1.35-6.56 3-1.19 1.06-2.34 2.17-3.49 3.28-.54.52-1.07 1.04-1.61 1.56-.46-.41-.92-.83-1.38-1.23-2.44-2.12-5.03-4.01-8.19-4.94-4.18-1.22-8.11 1.12-8.92 5.36-.42 2.24.2 4.37.93 6.46.24.69.49 1.37.76 2.15h-9.72c-1.83.01-2.75.77-2.79 2.56-.07 3.65-.06 7.3 0 10.95.03 1.62.91 2.46 2.5 2.56.1.01.21.01.32.01zm7.97-17.13c-.34-1.23-.69-2.36-.96-3.5-.83-3.49-.26-6.64 2.54-9.07 2.79-2.42 5.95-2.27 9.17-1 2.59 1.01 4.81 2.61 6.92 4.38l1.14.96c.23-.41.39-.89.71-1.21 2.67-2.75 5.48-5.33 9.32-6.38h3.25c.06.04.12.11.18.12 4.65 1.08 7.09 5.2 6.57 10.26-.19 1.77-.61 3.51-.93 5.33 2.66 0 5.32-.01 7.99.01 3.62.02 5.87 1.65 7.04 5.08.03.09.06 8.31 0 8.44-.32.68-.61 1.37-1.03 1.96-1.36 1.89-3.28 2.78-5.58 2.82-2.13.04-4.26.01-6.56.01.18.55.31 1.01.46 1.47.9 2.55 1.43 5.16.88 7.85-.94 4.64-5.48 7.35-10.25 6.17-3.46-.86-6.49-2.56-9.21-4.85-.19-.16-.38-.31-.64-.52-.85.75-1.66 1.52-2.52 2.21-2.32 1.85-4.8 3.32-7.92 3.32-4.16-.01-7.53-2.93-8.2-7.04-.42-2.62-.02-5.17.5-7.72.05-.24.1-.48.19-.89h-1.21c-3.04 0-6.07-.08-9.1.03-2.35.08-4.01-.66-4.69-3.04V68.8c.24-.47.42-.98.72-1.41.67-.95 1.58-1.43 2.77-1.42 2.78.02 5.56 0 8.45 0z"/></g></g></g></svg><svg width="200" height="200" viewBox="0 0 200 200" id="eq-3" x="400"><g fill-rule="evenodd" clip-rule="evenodd" fill="#fff"><path d="M150.047 63.89c-.804.9-1.65 1.574-2.96.9-.333-.168-.794-.11-1.197-.11-6.005-.006-12.01-.005-18.015 0-.398 0-.813-.056-1.255.242-.01 1.29.957 1.158 1.795 1.16 4.453 0 8.906 0 13.358-.026 1.07-.006 2.152.124 3.205-.273.793-.298 1.468-.004 1.933.685.425.628.397 1.287-.083 1.875-.516.633-1.196.945-1.964.53-.89-.484-1.83-.39-2.766-.388-4.52 0-9.04.012-13.56.025-.807 0-1.72-.12-1.633 1.133.217.412.586.32.9.32 4.25 0 8.5-.01 12.75-.01.613 0 1.193-.097 1.782-.288.804-.26 1.48.053 1.916.747.344.548.342 1.168-.022 1.725-.464.712-1.206 1.02-1.93.66-1.234-.612-2.505-.416-3.768-.42-3.98-.014-7.96.034-11.94-.007-1.09-.01-1.997.19-2.674 1.138.435.596 1.096.342 1.64.346 4.05.03 8.097 0 12.146.032.835.007 1.58-.27 2.367-.43.733-.147 1.323.2 1.683.854.32.58.288 1.17-.102 1.714-.38.533-.953.933-1.556.712-2.898-1.058-5.875-.365-8.81-.452-1.657-.05-3.348-.174-4.984.16-.182.89.208 1.29.935 1.247 3.344-.186 6.723.522 10.04-.413.79-.223 1.466.013 1.925.735.36.57.363 1.143 0 1.71-.46.72-1.13.92-1.93.738-3.468-.788-6.955-.09-10.25-.33-.52.52-.508.89-.215 1.486 2.435-.113 4.975.4 7.496-.294.878-.24 1.61-.094 2.11.71.353.567.348 1.164-.037 1.713-.534.763-1.228.866-2.13.645-2.786-.682-5.63-.208-8.447-.278-.594-.014-.947.435-1.157 1.3 2.302.1 4.534.116 6.77-.082.193-.017.372-.16.566-.212.82-.217 1.46.062 1.916.756.37.562.368 1.156-.003 1.712-.46.688-1.147 1.062-1.913.7-1.17-.55-2.377-.4-3.578-.4-19.904-.018-39.808-.023-59.71-.03-.67-.002-1.34 0-2.505 0l5.604-8.872c4.52 8.198 7.857 9.227 17.485 5.537.827.21 1.088 1.13 1.865 1.567.777.205 1.658.077 2.53.1.778.02 1.558.003 2.75.003l-3.704-4.373c2.433-3.065 3.827-6.486 3.575-10.456-.265-4.175-2.48-6.99-6.195-8.816 1.57-.4 15.174-.533 19.227-.2-.477 1.046-1.75 1.29-2.23 2.463.73.864 1.78 1.45 2.768 2.23.837-.566 1.57-1.286 2.604-1.482 1.62-.308 2.964.245 3.397 1.46.453 1.266-.25 2.852-1.674 3.507-.78.358-1.648.52-2.535.79-.32 1.085-.52 2.188-.465 3.305 3.574 1.25 4.585 2.312 4.308 4.465-.25 1.94-1.47 3.307-3.114 3.482-1.982.212-3.025-.725-3.934-3.62-1.5-.01-2.973.264-4.4.738.193 3.443 2.33 6.13 5.358 6.836 3.886.907 7.715-.666 9.596-3.94 1.84-3.203 1.286-6.025-1.937-9.51 1.64-1.31 3.123-2.772 3.363-5.01.244-2.274-.773-4.028-2.557-5.605.687-.35 1.284-.22 1.84-.22 8.434-.01 16.868-.005 25.3-.013.67 0 1.38.162 2-.147 1.38-.688 2.312-.184 3.04 1.01-.003.268-.003.538-.003.808zm-43.856 7.366h-6.73c-.265 1.246-.538 2.33-.342 3.535h6.308c.127-.238.272-.403.305-.59.162-.922.293-1.85.46-2.944zM89.898 78.254c-.848-.19-.98-.982-1.822-1.15h-4.903l3.035 3.537c-3.054 2.64-7.826 1.55-9.374-2.23-1.357-3.316-.78-6.5 1.435-9.307 2.183-2.768 5.07-3.917 8.57-3.285 2.603.47 4.474 2.385 4.903 4.988.448 2.708-.042 5.21-1.845 7.448zM54.188 78.763c.272 4.272 3.567 5.194 8.49 2.708.986.456 2.036.893 3.067 1.67-.47 1.07-1.405 1.612-2.324 2.084-2.71 1.394-5.58 1.592-8.45.67-2.49-.8-4.086-2.587-4.61-5.183-.825-4.076.37-7.467 3.67-10.037 2.792-2.172 6.872-2.417 9.92-.665 2.85 1.64 4.36 5.378 3.354 8.753-4.266.003-8.618.003-13.116.003zm9.376-2.884c-.816-2.375-2.353-3.48-4.324-3.413-2.103.072-3.762 1.34-4.248 3.462 2.815.108 5.57.18 8.572-.05z"/></g></svg><svg width="200" height="200" viewBox="0 0 200 200" id="guh" x="400" y="200"><g fill="#fff"><path d="M66.087 84.09c-.376.25-1.104.57-2.186.963-1.08.393-2.342.588-3.783.588-1.473 0-2.86-.234-4.16-.704-1.3-.47-2.436-1.2-3.407-2.186-.972-.987-1.74-2.217-2.303-3.69s-.846-3.227-.846-5.264c0-1.786.267-3.423.8-4.91s1.308-2.774 2.327-3.855c1.018-1.08 2.263-1.926 3.736-2.536 1.473-.61 3.133-.917 4.982-.917 2.036 0 3.814.15 5.334.446 1.518.3 2.795.572 3.83.822v21.81c0 3.76-.972 6.485-2.915 8.177-1.943 1.692-4.888 2.538-8.836 2.538-1.536 0-2.985-.126-4.348-.376s-2.546-.55-3.55-.893l.8-3.807c.877.345 1.95.65 3.22.917 1.268.266 2.59.4 3.97.4 2.602 0 4.473-.52 5.618-1.552 1.143-1.034 1.715-2.68 1.715-4.936V84.09zm-.046-18.143c-.438-.125-1.026-.242-1.762-.353-.736-.11-1.73-.164-2.984-.164-2.35 0-4.16.768-5.43 2.303s-1.902 3.572-1.902 6.11c0 1.41.18 2.616.54 3.618.36 1.005.847 1.834 1.458 2.492.61.658 1.316 1.145 2.115 1.457.8.312 1.622.47 2.468.47 1.16 0 2.224-.165 3.196-.494.97-.33 1.738-.712 2.302-1.15v-14.29zM109.923 85.828c-1.003.25-2.326.517-3.97.8s-3.55.422-5.71.422c-1.88 0-3.464-.274-4.748-.822-1.285-.548-2.32-1.323-3.102-2.326-.784-1.003-1.348-2.186-1.692-3.55-.344-1.362-.516-2.873-.516-4.534V62.093h4.37v12.784c0 2.978.47 5.107 1.41 6.393.94 1.285 2.523 1.927 4.748 1.927.47 0 .956-.016 1.457-.047.5-.03.97-.07 1.41-.118.437-.047.837-.094 1.197-.14.36-.048.62-.103.776-.165V62.093h4.37v23.735zM129.917 86.533v-35.72l4.37-.752v12.503c.815-.313 1.685-.557 2.61-.73s1.84-.258 2.75-.258c1.942 0 3.555.274 4.84.822 1.284.55 2.31 1.316 3.08 2.304.766.987 1.307 2.17 1.62 3.55.313 1.378.47 2.897.47 4.56v13.723h-4.37V73.75c0-1.505-.103-2.79-.306-3.855-.204-1.065-.54-1.928-1.01-2.585-.47-.658-1.097-1.136-1.88-1.434-.784-.298-1.755-.446-2.914-.446-.47 0-.956.03-1.457.094-.502.062-.98.134-1.435.21-.455.08-.862.166-1.222.26s-.62.173-.776.235v20.303h-4.37z"/></g></svg><svg width="200" height="200" viewBox="0 0 200 200" id="intertechno"><path d="M106.916 100.025H93.254c-.32-2.25-.274-2.31 1.852-2.434.114-.005.256.027.335-.03.17-.12.43-.28.44-.437.045-.745.02-1.495.02-2.355-.37.277-.568.532-.81.586-1.16.264-2.055-.633-1.833-1.792.054-.28.14-.555.158-.837.013-.182-.01-.48-.117-.54-.568-.31-1.15-.687-1.77-.78-.26-.04-.655.528-.924.872-.87 1.112-.837 1.086-2.026.356-.673-.414-.86-.824-.385-1.497.212-.3.38-.64.51-.982.073-.188.113-.468.025-.628-.613-1.114-1.633-1.32-2.65-.57-1.074.79-1.11.788-1.916-.173-.745-.886-.744-.893.08-1.727.22-.222.466-.426.647-.677.12-.168.236-.42.2-.603-.24-1.246-1.167-1.742-2.373-1.306-1.255.455-1.267.45-1.785-.712-.46-1.032-.448-1.066.57-1.64.2-.113.392-.236.594-.34.402-.21.785-.446.522-.98-.296-.596-.062-1.56-1.185-1.598-1.894-.063-1.893-.09-2.354-1.888v-.34c.35-.112.694-.245 1.05-.333 1.472-.366 1.443-.363 1.572-1.896.053-.625-.18-.87-.75-.994-.634-.138-1.25-.354-1.873-.537v-.34c.454-1.828.454-1.828 2.44-1.852.06 0 .132.028.17 0 .19-.134.46-.243.548-.433.683-1.5.594-1.738-.827-2.516-.124-.067-.244-.144-.373-.206-.49-.233-.525-.56-.324-1.047.652-1.572.635-1.58 2.204-1.003.213.078.425.19.646.214.175.02.41-.014.535-.12 1.102-.933 1.11-1.79.057-2.787-.104-.097-.203-.2-.306-.297-.346-.33-.355-.646-.067-1.047.972-1.357 1.064-1.374 2.456-.395.286.203.756.513.947.41.56-.302 1.107-.725 1.483-1.23.138-.187-.178-.764-.363-1.124-.7-1.358-.686-1.313.415-2.077.73-.507 1.212-.434 1.644.33.167.293.38.586.642.792.188.148.52.263.735.203 1.585-.447 1.724-.702 1.385-2.274-.048-.222-.114-.447-.11-.67 0-.15.07-.4.17-.435.586-.207 1.187-.472 1.785-.482.24-.003.486.597.736.917.022.03.095.024.223.05 0-.862.05-1.713-.033-2.552-.023-.238-.41-.557-.685-.63-.656-.176-1.627 0-1.95-.392-.36-.44-.145-1.35-.182-2.058h14.002c.085 2.29.085 2.29-2.198 2.422-.056.003-.135-.02-.166.01-.222.2-.604.4-.62.623-.07.948-.03 1.904-.03 2.857.263-.315.372-.664.557-.967.1-.166.317-.348.497-.365 1.35-.128 2.018.64 1.738 1.952-.054.25-.123.5-.144.753-.012.158.003.42.094.467.574.3 1.154.66 1.773.77.25.043.648-.462.9-.78.907-1.152.895-1.163 1.92-.502 1.037.667 1.037.667.436 1.778-.08.15-.145.31-.243.45-.402.577-.295.98.28 1.423 1.143.877 1.114.912 2.252.067.204-.152.398-.334.628-.436.154-.068.397-.09.538-.015 1.243.665 1.388 1.642.414 2.628-.16.16-.337.314-.46.5-.104.156-.248.412-.188.527.286.55.552 1.165 1 1.554.208.18.838-.05 1.24-.19 1.383-.485 1.39-.464 2 .904.305.684.148 1.057-.494 1.34-.336.15-.67.326-.96.548-.18.137-.383.383-.386.583-.022 1.438.593 2.04 2.01 1.842.844-.118 1.31.09 1.445.943v1.366c-.597.162-1.202.298-1.788.493-.247.082-.56.234-.657.442-.498 1.057.02 2.07 1.133 2.323.44.1.875.22 1.312.33v1.366c-.13.972-.733 1.135-1.59 1.012-.424-.06-1.008-.106-1.284.124-.84.7-.6 2.09.364 2.616 1.324.72 1.295.706.674 2.066-.294.645-.633.886-1.31.55-.353-.177-.74-.292-1.125-.393-.176-.047-.416-.06-.562.026-.966.56-1.12 1.85-.343 2.652.997 1.027.997 1.027.25 1.892-.84.975-.84.975-1.882.206-.207-.152-.396-.39-.622-.434-.307-.062-.75-.103-.95.065-1.43 1.196-1.495.812-.547 2.568.082.15.224.3.227.453.005.224-.015.52-.152.663-1.102 1.15-1.645 1.112-2.597-.138-.138-.18-.258-.38-.42-.535-.114-.108-.326-.25-.426-.21-.603.242-1.254.448-1.738.85-.194.16-.056.793.02 1.194.27 1.457.228 1.45-1.147 1.882-.9.283-1.113-.308-1.486-.876-.085.785-.07 1.536-.09 2.287-.018.647.255.92.914.917 1.895-.013 1.882-.346 1.85 2 0 .142-.018.283-.028.425zm-6.93-23.927h.77c3.188 0 6.375.016 9.562-.01.78-.005 1.143.222 1.114 1.07-.05 1.505-.033 3.015-.006 4.523.01.65-.233.95-.89.937-.798-.017-1.596-.023-2.392.004-.714.025-.958-.317-.93-.99.024-.538.028-1.085-.036-1.62-.1-.836-1.094-1.53-2.02-1.444-.97.09-.945.814-.945 1.518-.002 3.87-.05 7.74.023 11.61.017.903.396 1.813.7 2.687.07.2.535.39.796.364.824-.08.844-.634.696-1.314-.33-1.522-.308-1.527 1.054-2.12 1.416-.616 1.43-.627 2.52.752.36.458.666.602 1.205.253.526-.34.612-.687.282-1.192-.14-.213-.22-.47-.372-.67-.5-.664-.403-1.162.31-1.616.52-.333.963-1.066 1.46-1.083.535-.02 1.122.548 1.636.93.527.39.807.104 1.14-.258.36-.392.386-.728-.03-1.087-.215-.187-.38-.434-.61-.598-.728-.522-.627-1.03-.143-1.702 1.094-1.52 1.068-1.557 2.887-.98.522.166.773.014 1-.457.48-1-.37-1.155-.914-1.47-1.063-.617-1.074-.6-.698-1.765.534-1.652.533-1.676 2.333-1.695.676-.006.897-.314.934-.925.05-.856-.654-.745-1.12-.865-1.328-.344-1.343-.32-1.325-1.673.022-1.855-.28-1.676 1.64-2.09.786-.17 1.143-.853.645-1.41-.245-.273-.86-.31-1.303-.3-1.323.033-1.322.063-1.664-1.187-.46-1.68-.476-1.71 1.062-2.553.663-.364.645-.75.32-1.305-.443-.763-.987-.304-1.482-.127-1.254.447-1.25.46-1.95-.654-.94-1.49-.954-1.505.317-2.805.397-.406.415-.685.08-1.157-.497-.7-.89-.422-1.39-.042-1.276.967-1.286.955-2.363.042-1.26-1.065-1.27-1.072-.475-2.564.27-.507.393-.873-.216-1.278-.645-.43-.966-.18-1.305.34-.202.308-.41.63-.682.87-.18.158-.534.312-.718.238-.76-.305-1.627-.56-2.165-1.116-.274-.282.067-1.16.132-1.77.006-.057.048-.134.025-.165-.215-.282-.39-.643-.675-.81-.365-.217-.81-.182-.95.346-.243.925-.62 1.856-.64 2.79-.074 3.728-.033 7.457-.03 11.185.002 2.102-.15 2.012 1.902 1.977.717-.012 1.078.247 1.013.995-.02.227-.014.456-.002.683.034.646-.258.944-.91.93-.74-.018-1.48 0-2.22 0-3.244 0-6.49.016-9.733-.024-.372-.006-.974-.244-1.073-.518-.514-1.41-.016-2.048 1.47-2.06.056 0 .112 0 .17-.002 1.048-.017 1.113-.076 1.114-1.124.003-3.984.05-7.97-.034-11.953-.02-.984-.452-1.968-.76-2.93-.054-.17-.438-.343-.658-.33-.87.054-1.033.346-.816 1.34.387 1.76.318 1.51-1.055 2.14-1.636.748-1.3.808-2.428-.64-.59-.76-.85-.78-1.498-.2-.576.515-.11.93.116 1.35.676 1.252.686 1.247-.38 2.148-1.288 1.088-1.288 1.088-2.678.113-.683-.48-1.332-.334-1.474.444-.06.325.286.806.57 1.095 1.23 1.25.958 1.074.238 2.16-.938 1.412-.942 1.433-2.557.862-.587-.208-.94-.147-1.22.47-.275.614-.006.857.48 1.128 1.88 1.046 1.528.715 1.046 2.518-.354 1.32-.41 1.355-1.75 1.234-.142-.013-.284-.025-.423-.054-.643-.14-.857.21-.956.773-.102.583.146.855.688.95.28.05.554.142.836.172.738.077.99.465.98 1.203-.026 1.945.005 1.957-1.887 2.527-.5.15-.67.387-.598.926.106.806.575.847 1.216.766 1.538-.19 1.54-.177 1.935 1.26.438 1.595.456 1.628-1.026 2.416-.7.372-.688.79-.363 1.378.42.76.945.273 1.398.11 1.507-.546 1.3-.542 2.064.68.902 1.444.94 1.478-.27 2.612-.613.575-.477.956.018 1.47.532.554.862.086 1.232-.177 1.54-1.093 1.12-1.063 2.442.056 1.194 1.01 1.184 1.023.374 2.55-.396.746-.188 1.334.634 1.385.342.022.79-.424 1.062-.76.846-1.045.813-1.044 2.038-.505 1.82.803 1.624.52 1.248 2.418-.11.556-.033.923.586 1.105.607.18.942-.03 1.087-.595.17-.655.42-1.318.428-1.98.04-4.07.024-8.14.015-12.21-.003-1.343-.615-1.714-1.854-1.207-.727.298-1.085.777-1.05 1.566.02.483-.012.968-.006 1.45.008.566-.25.84-.825.835-.825-.008-1.652-.023-2.477.008-.746.028-1.004-.32-.99-1.03.023-1.423 0-2.846.006-4.27.003-1.152.067-1.22 1.196-1.223 3.39 0 6.776.003 10.16.003z" fill="#fff"/></svg><svg width="200" height="200" viewBox="0 0 200 200" id="lg" x="200" y="400"><g fill="#fff"><path d="M71.867 53.235C59.81 53.225 50.033 62.92 50 74.92c-.033 11.958 9.717 21.84 21.527 21.904 12.266.068 21.996-9.624 22.097-21.453.106-12.35-9.576-22.123-21.757-22.135zm4.382 29.52c.59-.017.804.197.724.777-.064.468.194 1.062-.7 1.034-1.595-.05-3.195-.032-4.792.005-.583.014-.7-.23-.698-.742.013-2.41 0-4.818-.002-7.228-.004-3.467-.014-6.934 0-10.4 0-.26.133-.73.253-.747.495-.067 1.016-.032 1.51.057.083.014.118.483.118.742.004 5.187 0 10.375 0 15.562v.95c1.28 0 2.433.023 3.586-.01zm13.72-7.875c-.004 8.603-5.715 15.838-14.092 17.818-10.18 2.406-20.492-4.452-22.12-14.753-1.033-6.523.8-12.135 5.68-16.623 3.044-2.8 6.667-4.394 10.854-4.558.662-.025 1.324-.055 1.986-.067.112 0 .226.076.353.122v1.7c-6.29-.062-11.306 2.388-14.76 7.666-2.376 3.633-3.114 7.675-2.286 11.936 1.67 8.593 9.49 14.018 17.538 13.302 9.645-.858 14.897-9.158 14.943-15.534H76.89v-1.756c.17-.02.357-.058.545-.058 3.885-.003 7.77.01 11.658-.01.61-.004.877.133.877.814zm-22.508-6.963c.086 1.415-1.05 2.665-2.497 2.75-1.553.09-2.733-1.095-2.82-2.83-.065-1.288 1.017-2.416 2.385-2.487 1.567-.08 2.84 1.033 2.932 2.567zM150.036 86.77V73.713c0-.4.053-.785-.568-.782-3.614.017-7.228.014-10.84 0-.51 0-.623.237-.62.68.015 1.376.02 2.753 0 4.13-.007.513.198.694.698.686 1.13-.02 2.262-.01 3.393-.002.257.002.515.037.84.063-.252 1.233-.54 2.383-1.44 3.166-.584.51-1.34.958-2.09 1.12-2.32.5-4.27-.588-5.17-2.882-1.203-3.07-1.198-6.202-.06-9.29.262-.713.755-1.388 1.284-1.946 1.732-1.828 5.61-1.586 6.415 1.623.12.488.387.542.792.54 2.213-.01 4.424-.003 6.638-.007.214 0 .428-.035.683-.057 0-.223.012-.392-.002-.56-.28-3.373-1.95-5.806-4.966-7.32-2.8-1.407-5.776-1.72-8.834-1.31-4.876.655-8.407 3.15-9.995 7.896-1.43 4.272-1.285 8.598.482 12.76 1.745 4.106 4.906 6.36 9.422 6.517 2.793.096 5.32-.572 7.18-2.864.033-.04.122-.03.23-.054 0 .598.015 1.163-.004 1.726-.013.406.14.567.557.564 1.795-.014 3.59-.017 5.384.002.455.005.624-.168.59-.605-.018-.25 0-.496 0-.74zM122.793 81.583c-3.196.032-6.393.015-9.59.014-1.054 0-1.057 0-1.058-1.04 0-5.852-.01-11.704.013-17.556.002-.695-.19-.948-.913-.933-1.94.042-3.885.014-5.828.015-.968 0-.97.003-.97.98V88.054h19.105c.017-.285.043-.524.043-.764.003-1.622-.026-3.246.016-4.868.018-.638-.155-.845-.817-.84z"/></g></svg><svg width="200" height="200" viewBox="0 0 200 200" id="lirc" x="400" y="400"><g><g fill-rule="evenodd" clip-rule="evenodd" fill="#fff"><path d="M117.56 77.102l7.414 12.412h-6.862c-2.035-3.642-4.11-7.352-6.16-11.024h-3.854v11.034h-6.235V60.4c5.385.27 10.79-.654 16.074.822 3.698 1.033 5.598 3.652 5.805 7.514.182 3.39-1.566 6.152-4.852 7.68-.358.166-.702.36-1.33.686zm-9.393-3.238c2.248-.158 4.292-.132 6.267-.49 1.904-.343 2.886-1.916 2.96-4.027.067-1.876-.816-3.412-2.705-3.796-2.106-.427-4.3-.42-6.523-.606v8.92zM149.444 68.458c-1.812.443-3.51.86-5.3 1.297-.363-.73-.642-1.403-1.016-2.02-.925-1.52-2.1-2.703-4.06-2.645-2.07.06-3.576 1.04-4.465 2.894-1.51 3.15-1.467 6.505-1.094 9.856.142 1.278.513 2.568 1 3.763.84 2.05 2.387 3.282 4.69 3.372 2.238.088 3.552-1.255 4.578-3 .342-.583.592-1.22.976-2.024l5.256.987c-.362 5.083-5.9 9.446-11.286 9-6.53-.545-10.025-3.606-11.223-10.074-.927-5.008-.904-10.008 1.648-14.6 2.185-3.93 6.71-5.764 11.61-5.02 4.575.694 7.458 3.367 8.686 8.215zM82.172 85.057V65.152h-6.588v-4.618h19.72v4.536h-6.56v19.905h6.588v4.528H75.55v-4.446h6.622zM69.512 84.903c0 1.17.01 2.01-.004 2.85-.008.556-.05 1.11-.082 1.775H49.99V60.532h6.154v24.37h13.368z"/></g></g></svg><svg width="200" height="200" viewBox="0 0 200 200" id="openweathermap" x="600"><g fill="#fff"><path d="M99.93 88.956c7.816-.176 13.902-6.11 13.904-13.94.002-7.816-6.07-13.903-13.9-13.905-7.816 0-13.904 6.07-13.906 13.902 0 7.816 6.07 13.764 13.902 13.944zm-5.564 1.69c.06.138.12.327.215.494 1.577 2.742 3.153 5.485 4.743 8.22.528.91.827.91 1.356-.002 1.588-2.735 3.165-5.478 4.74-8.222.1-.176.147-.384.205-.54-1.915.23-3.75.616-5.585.623-1.862.004-3.725-.363-5.674-.575zm.048-31.475l.123.143c3.672-1.15 7.34-1.116 11.06.083-.042-.187-.042-.28-.082-.35-1.647-2.857-3.292-5.716-4.954-8.564-.384-.66-.74-.65-1.14.027-1.046 1.784-2.07 3.582-3.106 5.375-.632 1.096-1.267 2.19-1.9 3.286zm12.714 30.498l.053.19c.187.066.368.15.558.198 2.98.75 5.96 1.497 8.944 2.235 1.104.274 1.28.093.96-1.033-.764-2.716-1.546-5.428-2.33-8.14-.1-.355-.247-.7-.373-1.048-.063-.015-.125-.03-.188-.043-1.7 3.39-4.23 5.948-7.624 7.64zm-22.42-21.613c1.112-1.52 2.042-3.073 3.254-4.364 1.225-1.304 2.727-2.347 4.112-3.51.016.01-.048-.06-.126-.08-3.07-.77-6.137-1.546-9.21-2.294-.722-.175-.95.086-.748.796.55 1.95 1.12 3.894 1.68 5.84.344 1.198.687 2.396 1.038 3.613zm30.91 1.322c1.002 3.65.99 7.223-.123 10.945 2.924-1.688 5.683-3.272 8.432-4.872.826-.48.824-.802-.006-1.286-2.062-1.203-4.138-2.386-6.208-3.58-.698-.4-1.396-.804-2.093-1.207zm-31.482.178c-.073.033-.24.09-.393.178-2.56 1.476-5.122 2.95-7.673 4.438-.823.48-.82.8.01 1.285 2.493 1.456 4.994 2.898 7.494 4.34.165.094.356.146.492.2-.177-1.77-.494-3.493-.48-5.215.014-1.746.354-3.49.55-5.225zm8.735 20.17c-3.432-1.694-5.894-4.152-7.653-7.48-.125.298-.204.432-.24.577-.73 2.91-1.463 5.82-2.17 8.733-.23.943-.02 1.12.933.85 2.756-.775 5.51-1.56 8.263-2.346.228-.067.446-.173.868-.336zm14.317-29.827l-.042.217c3.104 1.5 5.442 3.814 7.272 6.91.134-.45.22-.7.285-.954.636-2.56 1.27-5.122 1.905-7.684.243-.983.05-1.2-.918-.928-1.93.538-3.847 1.11-5.77 1.665-.91.262-1.822.517-2.733.775z"/><path d="M99.93 88.956c-7.833-.18-13.903-6.128-13.902-13.943.002-7.833 6.09-13.903 13.905-13.9 7.83 0 13.903 6.088 13.9 13.904 0 7.83-6.086 13.763-13.903 13.94zM94.366 90.645c1.95.213 3.812.58 5.673.573 1.835-.007 3.67-.393 5.584-.622-.058.155-.104.363-.206.54-1.575 2.743-3.15 5.486-4.74 8.22-.53.913-.828.914-1.356.004-1.59-2.735-3.166-5.48-4.742-8.22-.095-.168-.155-.356-.214-.495zM94.414 59.17c.633-1.094 1.268-2.188 1.9-3.284 1.035-1.792 2.06-3.59 3.107-5.376.4-.678.755-.688 1.14-.027 1.664 2.848 3.308 5.707 4.955 8.564.04.07.04.163.082.35-3.72-1.2-7.388-1.233-11.06-.083-.04-.05-.083-.096-.123-.143zM107.128 89.668c3.395-1.693 5.924-4.252 7.625-7.64l.187.04c.125.35.27.694.374 1.05.783 2.71 1.565 5.422 2.33 8.14.318 1.125.143 1.306-.96 1.033-2.983-.737-5.964-1.485-8.945-2.234-.19-.048-.372-.132-.558-.2-.02-.062-.036-.125-.054-.188zM84.708 68.055l-1.038-3.612c-.56-1.946-1.13-3.89-1.68-5.84-.2-.71.026-.97.747-.796 3.074.748 6.142 1.524 9.21 2.294.08.02.143.092.127.082-1.385 1.162-2.887 2.205-4.112 3.51-1.212 1.29-2.143 2.844-3.254 4.363zM115.62 69.377l2.092 1.21c2.07 1.19 4.146 2.375 6.21 3.578.83.483.83.805.005 1.286-2.75 1.6-5.508 3.185-8.432 4.873 1.112-3.723 1.125-7.295.124-10.946zM84.136 69.555c-.196 1.735-.537 3.48-.55 5.225-.014 1.722.303 3.446.48 5.216-.136-.055-.327-.106-.492-.202-2.5-1.44-5-2.883-7.494-4.34-.83-.483-.833-.804-.01-1.283 2.552-1.487 5.114-2.96 7.673-4.437.152-.087.32-.145.393-.178zM92.87 89.724c-.42.164-.64.27-.868.335-2.753.785-5.506 1.57-8.263 2.345-.956.27-1.163.094-.934-.85.708-2.915 1.44-5.823 2.17-8.733.036-.145.115-.278.24-.577 1.76 3.327 4.222 5.786 7.655 7.48zM107.187 59.898c.912-.258 1.824-.513 2.733-.775 1.923-.555 3.84-1.127 5.77-1.665.968-.27 1.16-.055.917.928l-1.905 7.685c-.064.256-.15.506-.285.956-1.83-3.096-4.168-5.41-7.272-6.91l.042-.218z" fill-rule="evenodd" clip-rule="evenodd"/></g></svg><svg width="200" height="200" viewBox="0 0 200 200" id="philips" x="600" y="200"><g fill-rule="evenodd" clip-rule="evenodd" fill="#fff"><path d="M126.27 65.85c.06.012.118.033.177.035 1.258.03 2.5.18 3.705.55 1.19.366 2.252.938 3.057 1.917.59.72.953 1.548 1.12 2.46.282 1.54.24 3.066-.333 4.545-.546 1.408-1.515 2.447-2.833 3.166-.883.48-1.833.757-2.82.92-1.07.18-2.145.14-3.22.146h-.686v4.18c-.08.004-.146.013-.21.013-1.647 0-3.293-.002-4.94.004-.173 0-.212-.052-.212-.22.004-5.71.004-11.422.004-17.132v-.2c.302-.036.59-.076.88-.1.727-.062 1.455-.13 2.185-.17.775-.04 1.553-.053 2.33-.08.07-.002.14-.022.21-.035h1.586zm-1.835 10.597c.77-.003 1.513.05 2.245-.137.94-.238 1.69-.73 2.127-1.623.434-.892.507-1.843.37-2.804-.223-1.543-1.19-2.348-2.62-2.628-.63-.124-1.266-.1-1.9-.1-.223 0-.223 0-.223.22v7.072zM57.252 65.85c.06.012.117.034.176.035 1.252.032 2.487.18 3.69.547 1.177.36 2.23.925 3.037 1.886.53.632.87 1.36 1.075 2.155.21.82.27 1.655.23 2.494-.087 1.805-.674 3.4-2.037 4.646-.8.73-1.74 1.21-2.77 1.524-1.08.328-2.188.453-3.313.45h-1.658c-.29 0-.29 0-.29.28v3.67c0 .244 0 .245-.238.245h-5.108V66.22c.028 0 .056.006.083.004.814-.076 1.628-.172 2.444-.224.958-.06 1.92-.08 2.878-.12.07-.002.14-.02.21-.034.53.002 1.06.002 1.59.002zm-1.845 10.597c.768-.004 1.51.048 2.243-.136 1.235-.31 2.053-1.052 2.383-2.295.17-.636.21-1.283.14-1.94-.066-.634-.25-1.22-.653-1.724-.473-.59-1.113-.892-1.83-1.062-.677-.16-1.365-.137-2.05-.133-.246 0-.247.002-.247.242v6.816c0 .072.01.144.014.234zM140.887 84.153c-.215-.025-.432-.044-.647-.074-.756-.105-1.516-.188-2.266-.327-.54-.1-1.062-.278-1.594-.417-.125-.033-.174-.095-.194-.23-.158-1.13-.33-2.256-.496-3.384-.02-.137-.03-.276-.045-.436.305.123.582.243.864.348 1.14.427 2.316.703 3.52.88.71.104 1.42.156 2.137.124.57-.026 1.125-.112 1.64-.39.816-.442.998-1.71.195-2.37-.474-.39-1.025-.625-1.59-.84-.876-.33-1.764-.636-2.633-.99-.876-.357-1.69-.826-2.358-1.512-.698-.714-1.102-1.57-1.224-2.555-.106-.854-.078-1.706.2-2.534.376-1.13 1.12-1.95 2.142-2.53.902-.512 1.884-.784 2.906-.917.435-.058.874-.077 1.31-.115.042-.004.085-.022.126-.035h1.252c.06.012.118.032.178.034.22.007.44-.005.66.015.62.058 1.24.115 1.857.2.498.068.99.176 1.484.267.147 1.274.29 2.524.437 3.788-.05-.012-.078-.015-.104-.024-.775-.307-1.58-.512-2.402-.635-.52-.078-1.048-.125-1.573-.175-.703-.066-1.405-.05-2.09.148-.438.126-.827.337-1.017.79-.214.51-.042 1.085.442 1.493.473.4 1.04.624 1.606.84.967.365 1.945.7 2.9 1.09.896.37 1.716.87 2.365 1.612.568.65.902 1.404 1.004 2.26l.072.646v.136c-.012.07-.032.14-.033.212-.014.768-.16 1.506-.48 2.206-.52 1.144-1.402 1.922-2.52 2.454-1.115.53-2.304.77-3.526.874-.228.02-.456.05-.682.074h-1.825zM78.575 83.774V76.87h-.213c-1.725 0-3.45 0-5.176-.005-.167 0-.218.037-.218.213.007 2.153.004 4.308.004 6.462 0 .242 0 .243-.234.243h-4.872c-.23 0-.23 0-.23-.236 0-5.7 0-11.4-.002-17.1 0-.164.032-.222.212-.22 1.64.008 3.28.004 4.922.004h.2v6.978h5.605v-6.966h5.323c.004.065.012.13.012.195 0 5.71 0 11.423.003 17.135 0 .157-.034.216-.203.215-1.646-.006-3.293-.004-4.94-.004-.052 0-.108-.005-.192-.01zM97.262 66.24h5.324V79.99c0 .337-.01.28.28.28 1.545.003 3.09.002 4.635.002h.23c-.034.16-.063.3-.095.438-.22.962-.44 1.925-.657 2.89-.03.128-.078.183-.222.183-3.107-.004-6.213-.003-9.32-.003-.055 0-.11-.008-.174-.013V66.24zM87.914 66.237h5.32c.006.07.015.142.015.212 0 5.706 0 11.412.003 17.118 0 .172-.048.22-.22.22-1.634-.007-3.27-.007-4.905-.002-.162 0-.22-.032-.22-.212.006-5.717.005-11.435.005-17.152v-.185zM109.67 66.24h5.322c.005.073.013.14.013.205V83.56c0 .222 0 .223-.227.223h-4.887c-.22 0-.22 0-.22-.223V66.24z"/></g></svg><svg width="200" height="200" viewBox="0 0 200 200" id="vivanco" x="600" y="400"><g fill-rule="evenodd" clip-rule="evenodd" fill="#fff"><path d="M149.992 77.532c-.02.058-.044.115-.055.175-.14.872-.647 1.424-1.493 1.638-.396.1-.812.163-1.218.167-1.855.018-3.71.018-5.565 0-.406-.003-.824-.062-1.218-.166-.953-.25-1.505-.917-1.524-1.902-.03-1.612-.036-3.227 0-4.84.026-1.134.732-1.832 1.93-2.008.328-.048.66-.076.99-.077 1.856-.003 3.71-.005 5.565.02.396.006.8.093 1.184.203.772.222 1.202.77 1.347 1.552.015.078.04.155.058.232v5.005zm-5.54-5.232v-.02c-.295 0-.59-.003-.887 0-.67.006-1.344 0-2.015.03-.604.027-.826.285-.827.884v3.765c0 .402.182.64.57.728.174.04.355.06.533.06 1.748.005 3.496.005 5.243-.002.21 0 .428-.038.63-.1.324-.097.463-.305.464-.64.002-1.328.002-2.654 0-3.98 0-.32-.146-.53-.445-.633-.15-.052-.314-.087-.473-.09-.932-.007-1.863-.003-2.794-.003zM101.323 79.507H99.58v-2.83H92.04v2.827h-1.754c-.01-.042-.027-.09-.027-.14 0-2.01-.016-4.018.01-6.026.022-1.52.935-2.52 2.437-2.74.326-.048.658-.08.99-.08 1.522-.003 3.047-.004 4.57.018.765.01 1.498.177 2.113.672.637.512.94 1.214.953 2 .032 2.07.015 4.142.017 6.212 0 .026-.014.05-.024.087zm-1.75-4.522v-1.448c-.003-.697-.28-1.04-.962-1.18-.156-.03-.318-.053-.478-.055-1.264-.01-2.528-.02-3.79-.02-.37-.002-.737.004-1.103.033-.692.054-1.12.348-1.172.895-.054.583-.012 1.175-.012 1.775h7.516zM115.898 76.96v-6.418h1.756c.006.09.016.185.016.28 0 2.6 0 5.198.002 7.798 0 .403-.077.762-.48.94-.395.176-.74.052-1.066-.212-2.516-2.034-5.037-4.062-7.556-6.09-.055-.045-.113-.086-.21-.158v6.402h-1.783v-.28c0-2.62 0-5.236-.002-7.854 0-.388.102-.714.478-.887.374-.17.714-.075 1.023.174l7.41 5.976c.122.1.245.197.412.33zM133.94 70.515v1.75c-.115.005-.227.014-.34.014-2.5 0-5-.003-7.503.003-.284 0-.575.02-.852.084-.392.088-.548.315-.548.717v3.873c0 .4.183.644.574.73.2.043.41.06.614.06 2.573.004 5.146.003 7.72.003h.337v1.77h-.272c-2.672 0-5.344.004-8.015-.005-.356 0-.718-.043-1.065-.12-1.142-.247-1.706-.997-1.712-2.263-.008-1.408-.006-2.815 0-4.223.002-.232.027-.467.076-.694.2-.93.827-1.472 1.87-1.62.355-.048.714-.076 1.072-.078 2.582-.006 5.163-.003 7.745-.003h.3zM50.008 70.515c.432 0 .822-.003 1.212 0 .304.003.66-.082.896.05s.352.478.513.736l3.65 5.83c.047.076.097.15.164.25.253-.4.494-.785.735-1.17 1.14-1.82 2.285-3.64 3.418-5.467.11-.178.23-.236.43-.232.6.014 1.2.005 1.846.005-.064.112-.104.187-.15.26-1.77 2.758-3.54 5.52-5.308 8.28-.516.803-1.426.812-1.94.01-1.79-2.78-3.57-5.562-5.355-8.345-.03-.05-.056-.105-.112-.205zM73.766 70.515c.422 0 .81.048 1.183-.01.71-.11 1.088.188 1.448.796 1.168 1.964 2.41 3.883 3.626 5.817.047.075.096.148.167.257.068-.1.122-.178.17-.257 1.334-2.125 2.667-4.25 3.993-6.38.102-.165.21-.23.405-.227.605.013 1.21.004 1.868.004-.087.144-.142.243-.203.338L81.14 79.09c-.484.754-1.412.76-1.898.002-1.788-2.78-3.57-5.565-5.354-8.35-.035-.055-.064-.118-.122-.227zM69.19 79.512h-1.73v-8.98h1.73v8.98z"/></g></svg></svg>